<?xml version="1.0" encoding="utf-8"?>
<!-- Generator: Adobe Illustrator 23.1.0, SVG Export Plug-In . SVG Version: 6.00 Build 0)  -->
<svg version="1.1" id="Capa_1" xmlns="http://www.w3.org/2000/svg" xmlns:xlink="http://www.w3.org/1999/xlink" x="0px" y="0px"
	 viewBox="0 0 22 22" style="enable-background:new 0 0 22 22;" xml:space="preserve">
<style type="text/css">
	.st0{fill:#2F4CDD;}
</style>
<g>
	<path class="st0" d="M8,21.9c-0.4-0.1-0.8-0.2-1.1-0.5C6.5,21,6.2,20.6,6.2,20c0-0.1,0-0.2,0-0.3c0-2.9,0-5.9,0-8.8
		c0-0.1,0-0.2,0-0.2c0.5,0,1,0,1.6,0c0,0.1,0,0.2,0,0.3c0,2.9,0,5.8,0,8.7c0,0.1,0,0.2,0,0.3c0.1,0.2,0.3,0.4,0.5,0.4
		c3.2,0,6.4,0,9.5,0c0.4,0,0.6-0.2,0.6-0.6c0-2,0-4,0-6c0-2.7,0-5.3,0-8c0-0.5-0.2-0.7-0.7-0.7c-1.6,0-3.2,0-4.8,0
		c-0.1,0-0.2,0-0.2,0c-0.1-0.5-0.2-1-0.2-1.6c0.1,0,0.1,0,0.2,0c1.7,0,3.4,0,5,0c1.3,0,2.2,0.9,2.2,2.2c0,4.6,0,9.3,0,13.9
		c0,1.1-0.7,2-1.8,2.2c0,0,0,0-0.1,0C14.7,21.9,11.4,21.9,8,21.9z"/>
	<path class="st0" d="M11.9,5c0,2.7-2.2,5-4.9,5C4.3,10,2,7.8,2,5c0-2.7,2.2-5,5-5C9.7,0,11.9,2.3,11.9,5z M7,8.9
		c2.2,0,3.9-1.8,3.9-3.9c0-2.2-1.8-3.9-3.9-3.9C4.8,1.1,3.1,2.9,3.1,5C3.1,7.2,4.9,9,7,8.9z"/>
	<path class="st0" d="M13.2,10.9c-0.9,0-1.9,0-2.8,0c-0.2,0-0.3-0.1-0.4-0.2c-0.3-0.3-0.2-0.7,0.2-0.9c0.1,0,0.2,0,0.2,0
		c1.8,0,3.7,0,5.5,0c0.1,0,0.2,0,0.3,0.1c0.2,0.1,0.3,0.3,0.3,0.6c0,0.2-0.3,0.4-0.5,0.4c-0.7,0-1.4,0-2.1,0
		C13.7,10.9,13.4,10.9,13.2,10.9z"/>
	<path class="st0" d="M13.2,13c0.9,0,1.9,0,2.8,0c0.3,0,0.5,0.2,0.5,0.4c0.1,0.2,0,0.5-0.3,0.6c-0.1,0-0.2,0.1-0.3,0.1
		c-1.8,0-3.7,0-5.5,0c-0.3,0-0.5-0.1-0.6-0.3c-0.1-0.2-0.1-0.4,0.1-0.5c0.1-0.1,0.3-0.2,0.5-0.2C11.3,13,12.3,13,13.2,13z"/>
	<path class="st0" d="M13.2,16.3c0.9,0,1.9,0,2.8,0c0.3,0,0.5,0.2,0.5,0.4c0,0.2-0.1,0.5-0.3,0.6c-0.1,0-0.2,0-0.3,0
		c-1.9,0-3.7,0-5.6,0c-0.4,0-0.6-0.2-0.6-0.5c0-0.3,0.2-0.5,0.6-0.5C11.4,16.3,12.3,16.3,13.2,16.3C13.2,16.3,13.2,16.3,13.2,16.3z"
		/>
	<path class="st0" d="M7.5,4.5c0.1,0,0.2,0,0.3,0c0.7,0,1.4,0,2.1,0c0.3,0,0.6,0.2,0.6,0.5c0,0.3-0.2,0.5-0.6,0.5c-1,0-1.9,0-2.9,0
		c-0.4,0-0.6-0.2-0.6-0.6c0-0.8,0-1.6,0-2.5c0-0.3,0.2-0.6,0.5-0.6c0.3,0,0.5,0.2,0.5,0.6c0,0.6,0,1.2,0,1.8
		C7.5,4.3,7.5,4.4,7.5,4.5z"/>
</g>
</svg>
